# xmcd CD database file generated by Grip 2.5
# 
# Track frame offsets:
#       150
#       12603
#       31179
#       56669
#       73383
#       97515
#       108976
#       120685
#       143029
#       163112
#       186331
#       196259
#       215842
#       234136
#       254335
#       267345
#       285988
#       298152
#       308946
#       320404
# 
# Disc length: 4476 seconds
# 
# Revision: 3
# Processed by: cddbd v1.4b41PL1 Copyright (c) Steve Scherf et al.
# Submitted via: Grip 2.5
# 
DISCID=2c117a14
DTITLE=Pure Prairie League - Anthology
DYEAR=1900
DGENRE=
TTITLE0=Tears
TTITLE1=Take it before you go
TTITLE2=You're between me
TTITLE3=Woman
TTITLE4=Harmony song
TTITLE5=It's all on me
TTITLE6=Jazzman
TTITLE7=Angel no. 9
TTITLE8=Leave my heart alone
TTITLE9=Early morning riser
TTITLE10=Falling in and out of love
TTITLE11=Amie
TTITLE12=Boulder skies
TTITLE13=Angel
TTITLE14=Call me, tell me
TTITLE15=Two lane highway
TTITLE16=Runner
TTITLE17=Just can't believe it
TTITLE18=I can only think of you
TTITLE19=Goin' home
EXTD=
EXTT0=
EXTT1=
EXTT2=
EXTT3=
EXTT4=
EXTT5=
EXTT6=
EXTT7=
EXTT8=
EXTT9=
EXTT10=
EXTT11=
EXTT12=
EXTT13=
EXTT14=
EXTT15=
EXTT16=
EXTT17=
EXTT18=
EXTT19=
PLAYORDER=
